<svg width="103" height="138" viewBox="0 0 103 138" fill="none" xmlns="http://www.w3.org/2000/svg">
<path d="M6.468 114V45.4H34.692C39.004 45.4 42.7933 46.282 46.06 48.046C49.392 49.7447 51.9727 52.162 53.802 55.298C55.6967 58.434 56.644 62.158 56.644 66.47V67.842C56.644 72.0887 55.664 75.8127 53.704 79.014C51.8093 82.15 49.196 84.6 45.864 86.364C42.5973 88.0627 38.8733 88.912 34.692 88.912H19.404V114H6.468ZM19.404 77.152H33.418C36.4887 77.152 38.9713 76.3027 40.866 74.604C42.7607 72.9053 43.708 70.586 43.708 67.646V66.666C43.708 63.726 42.7607 61.4067 40.866 59.708C38.9713 58.0093 36.4887 57.16 33.418 57.16H19.404V77.152Z" fill="white"/>
<rect x="79.3473" y="46.1377" width="21.3473" height="21.3473" rx="2" transform="rotate(180 79.3473 46.1377)" fill="#824701"/>
<rect x="102.76" y="34.4312" width="33.0539" height="34.4311" rx="2" transform="rotate(180 102.76 34.4312)" fill="#DD9137"/>
</svg>
