<svg width="17" height="18" viewBox="0 0 17 18" fill="none" xmlns="http://www.w3.org/2000/svg">
<g clip-path="url(#clip0_16_114)">
<path d="M16.0143 3.60645C15.0142 3.18627 14.0134 3.02641 13.0131 3.02641C9.83761 3.02615 6.66239 4.63637 3.48691 4.63637C2.69053 4.63637 1.89466 4.53514 1.09828 4.28205C1.00882 4.25364 0.919102 4.24021 0.831445 4.24021C0.38775 4.24021 0 4.58421 0 5.06172V13.2551C0 13.5813 0.186398 13.8904 0.485719 14.0159C1.48577 14.4364 2.4866 14.5962 3.48691 14.5962C6.66239 14.5962 9.83787 12.986 13.0133 12.986C13.8097 12.986 14.6056 13.0872 15.402 13.3403C15.4914 13.3687 15.5812 13.3822 15.6688 13.3822C16.1125 13.3822 16.5003 13.0382 16.5003 12.5607V4.36753C16.5 4.0411 16.3136 3.73222 16.0143 3.60645ZM1.2375 5.61464C1.75622 5.7448 2.29763 5.81014 2.8545 5.84526C2.70291 6.60427 2.03672 7.17631 1.2375 7.17631V5.61464ZM1.2375 12.9749V11.741C2.1236 11.741 2.84058 12.4452 2.88002 13.3266C2.29917 13.2799 1.75622 13.1637 1.2375 12.9749ZM8.25 11.2906C7.11073 11.2906 6.1875 10.1803 6.1875 8.81132C6.1875 7.44205 7.11098 6.33207 8.25 6.33207C9.38902 6.33207 10.3125 7.44205 10.3125 8.81132C10.3125 10.1808 9.38876 11.2906 8.25 11.2906ZM15.2625 12.008C14.8108 11.8946 14.3419 11.8311 13.8621 11.79C14.0134 11.1165 14.571 10.6052 15.2625 10.5173V12.008ZM15.2625 5.91034C14.4661 5.80937 13.8481 5.14333 13.8236 4.32079C14.3274 4.37683 14.8057 4.48168 15.2625 4.64774V5.91034Z" fill="#E1B892"/>
</g>
<defs>
<clipPath id="clip0_16_114">
<rect width="16.5" height="16.5283" fill="white" transform="translate(0 0.547165)"/>
</clipPath>
</defs>
</svg>
